<?xml version="1.0"?>
<svg width="256" height="256" xmlns="http://www.w3.org/2000/svg" xmlns:svg="http://www.w3.org/2000/svg" version="1.1" xml:space="preserve">

 <g class="layer">
  <title>Layer 1</title>
  <g fill="none" fill-rule="nonzero" id="svg_1" stroke-miterlimit="10" stroke-width="0" transform="rotate(90 127.5 122.996)">
   <path d="m39.95,250.5c-3.26,0 -5.88,-2.55 -5.88,-5.67l0,-93.16c0,-3.14 2.62,-5.67 5.88,-5.67s5.85,2.52 5.85,5.67l0,93.16c0,3.12 -2.62,5.67 -5.85,5.67z" fill="#03AB78" fill-rule="nonzero" id="svg_2" stroke-miterlimit="10"/>
   <path d="m215.11,163.68c-3.26,0 -5.88,-2.55 -5.88,-5.67l0,-156.85c0,-3.12 2.62,-5.67 5.88,-5.67s5.88,2.55 5.88,5.67l0,156.85c0,3.12 -2.65,5.67 -5.88,5.67z" fill="#03AB78" fill-rule="nonzero" id="svg_3" stroke-miterlimit="10"/>
   <path d="m127.51,250.5c-3.23,0 -5.88,-2.55 -5.88,-5.67l0,-170.23c0,-3.12 2.65,-5.67 5.88,-5.67s5.88,2.55 5.88,5.67l0,170.23c0,3.12 -2.65,5.67 -5.88,5.67z" fill="#03AB78" fill-rule="nonzero" id="svg_4" stroke-miterlimit="10"/>
   <path d="m127.51,80.27c-16.05,0 -29.13,-12.58 -29.13,-28.08s13.08,-28.08 29.13,-28.08c16.08,0 29.13,12.61 29.13,28.08s-13.05,28.08 -29.13,28.08zm0,-44.82c-9.58,0 -17.37,7.51 -17.37,16.74s7.79,16.74 17.37,16.74s17.37,-7.51 17.37,-16.74s-7.79,-16.74 -17.37,-16.74z" fill="#03AB78" fill-rule="nonzero" id="svg_5" stroke-miterlimit="10"/>
   <path d="m39.95,157.34c-16.08,0 -29.16,-12.61 -29.16,-28.11c0,-15.47 13.08,-28.05 29.16,-28.05s29.13,12.58 29.13,28.05c-0.03,15.5 -13.08,28.11 -29.13,28.11zm0,-44.82c-9.58,0 -17.4,7.51 -17.4,16.72s7.82,16.74 17.4,16.74s17.37,-7.51 17.37,-16.74s-7.82,-16.72 -17.37,-16.72z" fill="#03AB78" fill-rule="nonzero" id="svg_6" stroke-miterlimit="10"/>
   <path d="m215.11,208.51c-16.08,0 -29.13,-12.61 -29.13,-28.08c0,-15.5 13.05,-28.08 29.13,-28.08c16.05,0 29.1,12.58 29.1,28.08c0,15.47 -13.05,28.08 -29.1,28.08zm0,-44.82c-9.58,0 -17.37,7.51 -17.37,16.74s7.79,16.74 17.37,16.74s17.34,-7.51 17.34,-16.74s-7.79,-16.74 -17.34,-16.74z" fill="#03AB78" fill-rule="nonzero" id="svg_7" stroke-miterlimit="10"/>
   <path d="m39.95,112.51c-3.26,0 -5.88,-2.55 -5.88,-5.67l0,-105.68c0,-3.12 2.62,-5.67 5.88,-5.67s5.85,2.55 5.85,5.67l0,105.68c0,3.12 -2.62,5.67 -5.85,5.67z" fill="#03AB78" fill-rule="nonzero" id="svg_8" stroke-miterlimit="10"/>
   <path d="m127.51,35.45c-3.23,0 -5.88,-2.52 -5.88,-5.67l0,-28.62c0,-3.12 2.65,-5.67 5.88,-5.67s5.88,2.55 5.88,5.67l0,28.62c0,3.14 -2.65,5.67 -5.88,5.67z" fill="#03AB78" fill-rule="nonzero" id="svg_9" stroke-miterlimit="10"/>
   <path d="m215.11,250.5c-3.26,0 -5.88,-2.55 -5.88,-5.67l0,-41.99c0,-3.14 2.62,-5.67 5.88,-5.67s5.88,2.52 5.88,5.67l0,41.99c0,3.12 -2.65,5.67 -5.88,5.67z" fill="#03AB78" fill-rule="nonzero" id="svg_10" stroke-miterlimit="10"/>
  </g>
 </g>
</svg>